<svg width="1440" height="697" viewBox="0 0 1440 697" fill="none" xmlns="http://www.w3.org/2000/svg">
<path opacity="0.2" d="M-307.911 336.312C-235.192 263.247 -146.49 190.49 -42.7383 189.938C29.938 189.742 100.754 228.464 139.987 287.816C170.686 334.253 183.245 390.229 215.59 433.666C256.212 488.102 327.064 517.521 398.452 512.407C479.125 506.795 552.305 458.358 632.1 458.808C691.909 459.144 748.324 487.294 795.586 523.368C847.052 562.661 884.842 611.709 935.876 649.065C978.511 680.197 1028.26 702.831 1077.23 694.434C1125.74 686.122 1167.01 644.294 1183.6 596.42C1199.29 551.18 1200.91 501.598 1195.47 453.328C1190.58 409.926 1184.96 364.856 1199.88 325.114C1216.53 280.718 1256.33 248.11 1298.01 222.034C1338.92 196.557 1382.77 176.198 1419.8 146.818C1466.83 109.481 1501.69 57.5932 1517.66 0.322719" stroke="#007163" stroke-miterlimit="10"/>
</svg>
