<svg width="20" height="20" viewBox="0 0 20 20" fill="none" xmlns="http://www.w3.org/2000/svg">
<path d="M11.1049 10L19.7712 1.33372C20.0763 1.0286 20.0763 0.533915 19.7712 0.228837C19.4661 -0.0762401 18.9714 -0.0762792 18.6663 0.228837L9.99998 8.89515L1.3337 0.228837C1.02859 -0.0762792 0.5339 -0.0762792 0.228822 0.228837C-0.0762554 0.533954 -0.0762944 1.02864 0.228822 1.33372L8.89509 9.99999L0.228822 18.6663C-0.0762944 18.9714 -0.0762944 19.4661 0.228822 19.7712C0.381361 19.9237 0.581321 20 0.781282 20C0.981243 20 1.18116 19.9237 1.33374 19.7712L9.99998 11.1049L18.6662 19.7712C18.8188 19.9237 19.0187 20 19.2187 20C19.4187 20 19.6186 19.9237 19.7712 19.7712C20.0763 19.4661 20.0763 18.9714 19.7712 18.6663L11.1049 10Z" fill="black"/>
</svg>
